# xmcd
#
# Track frame offsets:
#	183
#	13983
#	27080
#	43090
#	58968
#	76738
#	94240
#	108635
#	129223
#	142803
#	159973
#	175393
#	188803
#	201490
#	215980
#	232475
#
# Disc length: 3336 seconds
#
# Revision: 7
# Processed by: cddbd v1.5.2PL0 Copyright (c) Steve Scherf et al.
# Submitted via: audiograbber 1.83.01
#
DISCID=eb0d0610
DTITLE=Various Artist - Rhythm Divine - CD1
DYEAR=1991
DGENRE=Dance R&B Disco
TTITLE0=Sly and The Family Stone - Family Affair 1971
TTITLE1=O'Jays - Love Train 1972
TTITLE2=Heatwave - Boogie Nights 1976
TTITLE3=The Jacksons - Blame It On The Boogie 1976
TTITLE4=Labelle - Lady Marmalade 1974
TTITLE5=Isley Brothers - Harvest For The World 1976
TTITLE6=Wild Cherry - Play That Funky Music 1976
TTITLE7=Isaac Hayes - Theme From Shaft 1971
TTITLE8=Billy Ocean - Love Really Hurts Without You 1976
TTITLE9=Candi Staton - Young Hearts Run Free 1976
TTITLE10=The Real Thing - You To Me Are Everything 1976
TTITLE11=Gloria Gaynor - Never Can Say Goodbye 1974
TTITLE12=Blackbyrds - Walking In Rhythm 1974
TTITLE13=Gladys Knight and The Pips - Baby Don't Change Your Mind 
TTITLE14=Detroit Emeralds - Feel The Need In Me 1972
TTITLE15=Harold Melvin - Don't Leave Me This Way 1975
EXTD=YEAR: 1991
EXTT0=
EXTT1=
EXTT2=
EXTT3=
EXTT4=
EXTT5=
EXTT6=
EXTT7=
EXTT8=
EXTT9=
EXTT10=
EXTT11=
EXTT12=
EXTT13=
EXTT14=
EXTT15=
PLAYORDER=
